<?xml version="1.0" standalone="no"?>
<!DOCTYPE svg PUBLIC "-//W3C//DTD SVG 20010904//EN"
 "http://www.w3.org/TR/2001/REC-SVG-20010904/DTD/svg10.dtd">
<svg version="1.0" xmlns="http://www.w3.org/2000/svg"
 width="700.000000pt" height="700.000000pt" viewBox="0 0 700.000000 700.000000"
 preserveAspectRatio="xMidYMid meet">
<metadata>
Created by potrace 1.11, written by Peter Selinger 2001-2013
</metadata>
<g transform="translate(0.000000,700.000000) scale(0.100000,-0.100000)"
fill="#000000" stroke="none">
<path d="M6085 6329 c-222 -63 -930 -240 -1275 -319 -824 -188 -1189 -288
-1455 -402 -418 -179 -662 -336 -915 -588 -347 -345 -608 -754 -745 -1165
-127 -381 -161 -850 -97 -1342 27 -201 11 -288 -76 -433 -62 -102 -105 -146
-351 -361 -424 -369 -467 -418 -517 -573 -47 -146 -43 -356 7 -420 29 -36 74
-34 130 5 24 17 238 224 474 459 443 440 492 482 640 551 36 18 86 34 111 37
57 6 198 -12 414 -53 478 -92 580 -106 950 -126 354 -19 581 8 911 107 407
122 614 234 842 454 266 255 521 599 675 907 315 628 520 1684 562 2897 8 255
8 292 -6 315 -19 32 -81 78 -115 85 -13 2 -87 -13 -164 -35z m-119 -404 c39
-27 48 -67 28 -127 -71 -217 -249 -560 -439 -848 -215 -325 -428 -558 -740
-809 -287 -231 -402 -302 -1165 -717 -493 -268 -684 -381 -1015 -600 -253
-168 -364 -261 -518 -436 -185 -211 -315 -317 -356 -290 -45 28 4 231 124 513
97 229 205 403 381 613 249 299 543 553 994 858 259 176 520 328 1010 588 232
124 407 228 625 373 411 274 589 424 812 687 118 138 195 209 228 210 6 0 20
-7 31 -15z"/>
</g>
</svg>
